<svg version="1.1" viewBox="0.0 0.0 449.0209973753281 526.4671916010499" fill="none" stroke="none" stroke-linecap="square" stroke-miterlimit="10" xmlns:xlink="http://www.w3.org/1999/xlink" xmlns="http://www.w3.org/2000/svg"><clipPath id="p.0"><path d="m0 0l449.021 0l0 526.46716l-449.021 0l0 -526.46716z" clip-rule="nonzero"/></clipPath><g clip-path="url(#p.0)"><path fill="#000000" fill-opacity="0.0" d="m0 0l449.021 0l0 526.46716l-449.021 0z" fill-rule="evenodd"/><path fill="#000000" fill-opacity="0.0" d="m6.8372703 184.12335l97.22835 0l0 74.86615l-97.22835 0z" fill-rule="evenodd"/><path stroke="#000000" stroke-width="1.0" stroke-linejoin="round" stroke-linecap="butt" d="m6.8372703 184.12335l97.22835 0l0 74.86615l-97.22835 0z" fill-rule="evenodd"/><path fill="#000000" d="m26.79376 228.47643l0 -13.359375l1.8125 0l7.015623 10.484375l0 -10.484375l1.6875 0l0 13.359375l-1.8125 0l-7.015623 -10.5l0 10.5l-1.6875 0zm12.676069 -4.84375q0 -2.6875 1.484375 -3.96875q1.25 -1.078125 3.046875 -1.078125q2.0 0 3.265625 1.3125q1.265625 1.296875 1.265625 3.609375q0 1.859375 -0.5625 2.9375q-0.5625 1.0625 -1.640625 1.65625q-1.0625 0.59375 -2.328125 0.59375q-2.03125 0 -3.28125 -1.296875q-1.25 -1.3125 -1.25 -3.765625zm1.6875 0q0 1.859375 0.796875 2.796875q0.8125 0.921875 2.046875 0.921875q1.21875 0 2.03125 -0.921875q0.8125 -0.9375 0.8125 -2.84375q0 -1.796875 -0.8125 -2.71875q-0.8125 -0.921875 -2.03125 -0.921875q-1.234375 0 -2.046875 0.921875q-0.796875 0.90625 -0.796875 2.765625zm15.563217 4.84375l0 -1.21875q-0.90625 1.4375 -2.703125 1.4375q-1.15625 0 -2.125 -0.640625q-0.96875 -0.640625 -1.5 -1.78125q-0.53125 -1.140625 -0.53125 -2.625q0 -1.453125 0.484375 -2.625q0.484375 -1.1875 1.4375 -1.8125q0.96875 -0.625 2.171875 -0.625q0.875 0 1.546875 0.375q0.6875 0.359375 1.109375 0.953125l0 -4.796875l1.640625 0l0 13.359375l-1.53125 0zm-5.171875 -4.828125q0 1.859375 0.78125 2.78125q0.78125 0.921875 1.84375 0.921875q1.078125 0 1.828125 -0.875q0.75 -0.890625 0.75 -2.6875q0 -1.984375 -0.765625 -2.90625q-0.765625 -0.9375 -1.890625 -0.9375q-1.078125 0 -1.8125 0.890625q-0.734375 0.890625 -0.734375 2.8125zm15.906971 1.71875l1.6875 0.203125q-0.40625 1.484375 -1.484375 2.3125q-1.078125 0.8125 -2.765625 0.8125q-2.1250038 0 -3.3750038 -1.296875q-1.234375 -1.3125 -1.234375 -3.671875q0 -2.453125 1.25 -3.796875q1.265625 -1.34375 3.2656288 -1.34375q1.9375 0 3.15625 1.328125q1.234375 1.3125 1.234375 3.703125q0 0.15625 0 0.4375l-7.218754 0q0.09375 1.59375 0.90625 2.453125q0.8125 0.84375 2.0156288 0.84375q0.90625 0 1.546875 -0.46875q0.640625 -0.484375 1.015625 -1.515625zm-5.390629 -2.65625l5.406254 0q-0.109375 -1.21875 -0.625 -1.828125q-0.78125 -0.953125 -2.03125 -0.953125q-1.1250038 0 -1.9062538 0.765625q-0.765625 0.75 -0.84375 2.015625zm20.0434 5.765625l-1.640625 0l0 -10.453125q-0.59375 0.5625 -1.5625 1.140625q-0.953125 0.5625 -1.71875 0.84375l0 -1.59375q1.375 -0.640625 2.40625 -1.5625q1.03125 -0.921875 1.453125 -1.78125l1.0625 0l0 13.40625z" fill-rule="nonzero"/><path fill="#000000" fill-opacity="0.0" d="m250.72704 184.12335l97.22835 0l0 74.86615l-97.22835 0z" fill-rule="evenodd"/><path stroke="#000000" stroke-width="1.0" stroke-linejoin="round" stroke-linecap="butt" d="m250.72704 184.12335l97.22835 0l0 74.86615l-97.22835 0z" fill-rule="evenodd"/><path fill="#000000" d="m270.68353 228.47643l0 -13.359375l1.8125 0l7.015625 10.484375l0 -10.484375l1.6875 0l0 13.359375l-1.8125 0l-7.015625 -10.5l0 10.5l-1.6875 0zm12.676056 -4.84375q0 -2.6875 1.484375 -3.96875q1.25 -1.078125 3.046875 -1.078125q2.0 0 3.265625 1.3125q1.265625 1.296875 1.265625 3.609375q0 1.859375 -0.5625 2.9375q-0.5625 1.0625 -1.640625 1.65625q-1.0625 0.59375 -2.328125 0.59375q-2.03125 0 -3.28125 -1.296875q-1.25 -1.3125 -1.25 -3.765625zm1.6875 0q0 1.859375 0.796875 2.796875q0.8125 0.921875 2.046875 0.921875q1.21875 0 2.03125 -0.921875q0.8125 -0.9375 0.8125 -2.84375q0 -1.796875 -0.8125 -2.71875q-0.8125 -0.921875 -2.03125 -0.921875q-1.234375 0 -2.046875 0.921875q-0.796875 0.90625 -0.796875 2.765625zm15.563232 4.84375l0 -1.21875q-0.90625 1.4375 -2.703125 1.4375q-1.15625 0 -2.125 -0.640625q-0.96875 -0.640625 -1.5 -1.78125q-0.53125 -1.140625 -0.53125 -2.625q0 -1.453125 0.484375 -2.625q0.484375 -1.1875 1.4375 -1.8125q0.96875 -0.625 2.171875 -0.625q0.875 0 1.546875 0.375q0.6875 0.359375 1.109375 0.953125l0 -4.796875l1.640625 0l0 13.359375l-1.53125 0zm-5.171875 -4.828125q0 1.859375 0.78125 2.78125q0.78125 0.921875 1.84375 0.921875q1.078125 0 1.828125 -0.875q0.75 -0.890625 0.75 -2.6875q0 -1.984375 -0.765625 -2.90625q-0.765625 -0.9375 -1.890625 -0.9375q-1.078125 0 -1.8125 0.890625q-0.734375 0.890625 -0.734375 2.8125zm15.906952 1.71875l1.6875 0.203125q-0.40625 1.484375 -1.484375 2.3125q-1.078125 0.8125 -2.765625 0.8125q-2.125 0 -3.375 -1.296875q-1.234375 -1.3125 -1.234375 -3.671875q0 -2.453125 1.25 -3.796875q1.265625 -1.34375 3.265625 -1.34375q1.9375 0 3.15625 1.328125q1.234375 1.3125 1.234375 3.703125q0 0.15625 0 0.4375l-7.21875 0q0.09375 1.59375 0.90625 2.453125q0.8125 0.84375 2.015625 0.84375q0.90625 0 1.546875 -0.46875q0.640625 -0.484375 1.015625 -1.515625zm-5.390625 -2.65625l5.40625 0q-0.109375 -1.21875 -0.625 -1.828125q-0.78125 -0.953125 -2.03125 -0.953125q-1.125 0 -1.90625 0.765625q-0.765625 0.75 -0.84375 2.015625zm22.480896 4.1875l0 1.578125l-8.828125 0q-0.015625 -0.59375 0.1875 -1.140625q0.34375 -0.90625 1.078125 -1.78125q0.75 -0.875 2.15625 -2.015625q2.171875 -1.78125 2.9375 -2.828125q0.765625 -1.046875 0.765625 -1.96875q0 -0.984375 -0.703125 -1.640625q-0.6875 -0.671875 -1.8125 -0.671875q-1.1875 0 -1.90625 0.71875q-0.703125 0.703125 -0.703125 1.953125l-1.6875 -0.171875q0.171875 -1.890625 1.296875 -2.875q1.140625 -0.984375 3.03125 -0.984375q1.921875 0 3.046875 1.0625q1.125 1.0625 1.125 2.640625q0 0.796875 -0.328125 1.578125q-0.328125 0.78125 -1.09375 1.640625q-0.75 0.84375 -2.53125 2.34375q-1.46875 1.234375 -1.890625 1.6875q-0.421875 0.4375 -0.6875 0.875l6.546875 0z" fill-rule="nonzero"/><path fill="#000000" fill-opacity="0.0" d="m128.78215 230.32939l97.22835 0l0 74.866135l-97.22835 0z" fill-rule="evenodd"/><path stroke="#000000" stroke-width="1.0" stroke-linejoin="round" stroke-linecap="butt" d="m128.78215 230.32939l97.22835 0l0 74.866135l-97.22835 0z" fill-rule="evenodd"/><path fill="#000000" d="m148.73865 274.68246l0 -13.359375l1.8125 0l7.015625 10.484375l0 -10.484375l1.6875 0l0 13.359375l-1.8125 0l-7.015625 -10.5l0 10.5l-1.6875 0zm12.676071 -4.84375q0 -2.6875 1.484375 -3.96875q1.25 -1.078125 3.046875 -1.078125q2.0 0 3.265625 1.3125q1.265625 1.296875 1.265625 3.609375q0 1.859375 -0.5625 2.9375q-0.5625 1.0625 -1.640625 1.65625q-1.0625 0.59375 -2.328125 0.59375q-2.03125 0 -3.28125 -1.296875q-1.25 -1.3125 -1.25 -3.765625zm1.6875 0q0 1.859375 0.796875 2.796875q0.8125 0.921875 2.046875 0.921875q1.21875 0 2.03125 -0.921875q0.8125 -0.9375 0.8125 -2.84375q0 -1.796875 -0.8125 -2.71875q-0.8125 -0.921875 -2.03125 -0.921875q-1.234375 0 -2.046875 0.921875q-0.796875 0.90625 -0.796875 2.765625zm15.563217 4.84375l0 -1.21875q-0.90625 1.4375 -2.703125 1.4375q-1.15625 0 -2.125 -0.640625q-0.96875 -0.640625 -1.5 -1.78125q-0.53125 -1.140625 -0.53125 -2.625q0 -1.453125 0.484375 -2.625q0.484375 -1.1875 1.4375 -1.8125q0.96875 -0.625 2.171875 -0.625q0.875 0 1.546875 0.375q0.6875 0.359375 1.109375 0.953125l0 -4.796875l1.640625 0l0 13.359375l-1.53125 0zm-5.171875 -4.828125q0 1.859375 0.78125 2.78125q0.78125 0.921875 1.84375 0.921875q1.078125 0 1.828125 -0.875q0.75 -0.890625 0.75 -2.6875q0 -1.984375 -0.765625 -2.90625q-0.765625 -0.9375 -1.890625 -0.9375q-1.078125 0 -1.8125 0.890625q-0.734375 0.890625 -0.734375 2.8125zm15.906967 1.71875l1.6875 0.203125q-0.40625 1.484375 -1.484375 2.3125q-1.078125 0.8125 -2.765625 0.8125q-2.125 0 -3.375 -1.296875q-1.234375 -1.3125 -1.234375 -3.671875q0 -2.453125 1.25 -3.796875q1.265625 -1.34375 3.265625 -1.34375q1.9375 0 3.15625 1.328125q1.234375 1.3125 1.234375 3.703125q0 0.15625 0 0.4375l-7.21875 0q0.09375 1.59375 0.90625 2.453125q0.8125 0.84375 2.015625 0.84375q0.90625 0 1.546875 -0.46875q0.640625 -0.484375 1.015625 -1.515625zm-5.390625 -2.65625l5.40625 0q-0.109375 -1.21875 -0.625 -1.828125q-0.78125 -0.953125 -2.03125 -0.953125q-1.125 0 -1.90625 0.765625q-0.765625 0.75 -0.84375 2.015625zm13.871521 2.234375l1.640625 -0.21875q0.28125 1.40625 0.953125 2.015625q0.6875 0.609375 1.65625 0.609375q1.15625 0 1.953125 -0.796875q0.796875 -0.796875 0.796875 -1.984375q0 -1.125 -0.734375 -1.859375q-0.734375 -0.734375 -1.875 -0.734375q-0.46875 0 -1.15625 0.171875l0.1875 -1.4375q0.15625 0.015625 0.265625 0.015625q1.046875 0 1.875 -0.546875q0.84375 -0.546875 0.84375 -1.671875q0 -0.90625 -0.609375 -1.5q-0.609375 -0.59375 -1.578125 -0.59375q-0.953125 0 -1.59375 0.609375q-0.640625 0.59375 -0.8125 1.796875l-1.640625 -0.296875q0.296875 -1.640625 1.359375 -2.546875q1.0625 -0.90625 2.65625 -0.90625q1.09375 0 2.0 0.46875q0.921875 0.46875 1.40625 1.28125q0.5 0.8125 0.5 1.71875q0 0.859375 -0.46875 1.578125q-0.46875 0.703125 -1.375 1.125q1.1875 0.28125 1.84375 1.140625q0.65625 0.859375 0.65625 2.15625q0 1.734375 -1.28125 2.953125q-1.265625 1.21875 -3.21875 1.21875q-1.765625 0 -2.921875 -1.046875q-1.15625 -1.046875 -1.328125 -2.71875z" fill-rule="nonzero"/><path fill="#e06666" d="m113.79685 42.30099l0 0c-1.2515488 -8.134693 2.8575287 -16.187544 10.583595 -20.741434c7.726074 -4.55389 17.714142 -4.8101635 25.725906 -0.66007614l0 0c2.838028 -4.729847 8.03241 -7.9954805 14.011978 -8.80911c5.9795837 -0.8136282 12.042007 0.9203119 16.353516 4.6773367l0 0c2.4176178 -4.2883835 7.164673 -7.16963 12.556641 -7.6213217c5.391968 -0.45169258 10.665756 1.5900946 13.949966 5.4008293l0 0c4.3677826 -4.545676 11.317047 -6.4595947 17.840805 -4.9135933c6.5237427 1.5460024 11.450256 6.27425 12.647812 12.138803l0 0c5.351288 1.2909927 9.808792 4.5728626 12.22084 8.997683c2.4120483 4.42482 2.542038 9.558525 0.35636902 14.07473l0 0c5.269455 6.0657578 6.5021057 14.1483 3.2379608 21.231373c-3.264145 7.0830765 -10.534683 12.102524 -19.098389 13.185188c-0.06036377 6.6477127 -4.18248 12.7475815 -10.777527 15.948441c-6.5950317 3.200859 -14.633148 3.002884 -21.016098 -0.5176163l0 0c-2.7187958 7.9617996 -10.371307 13.820007 -19.651367 15.043671c-9.28006 1.223671 -18.524017 -2.406578 -23.738174 -9.322334l0 0c-6.391449 3.4087982 -14.060654 4.39077 -21.277603 2.7243881c-7.216934 -1.6663742 -13.373711 -5.8407288 -17.081451 -11.581406l0 0c-6.5312576 0.6759796 -12.846085 -2.3168793 -15.810448 -7.4932404c-2.9643707 -5.1763535 -1.9472351 -11.43428 2.546608 -15.667992l0 0c-5.8260574 -3.0328293 -8.798859 -9.050972 -7.36821 -14.916203c1.4306412 -5.8652267 6.9405518 -10.248459 13.656517 -10.864014z" fill-rule="evenodd"/><path fill="#000000" fill-opacity="0.0" d="m107.37944 68.39473l0 0c2.7493286 1.4311981 5.925453 2.080429 9.101921 1.8605118m4.160492 21.301239c1.3659973 -0.14138031 2.7049332 -0.440773 3.982277 -0.8904495m34.374878 9.747093c-0.9607544 -1.274292 -1.765152 -2.6359787 -2.399475 -4.0618668m45.790665 -1.6597061l0 0c0.49568176 -1.4515533 0.8168335 -2.9455109 0.9581146 -4.4569626m30.834305 -10.973305c0.06425476 -7.0775223 -4.480789 -13.557777 -11.682922 -16.657299m27.543198 -17.758514c-1.1663666 2.4100304 -2.9469452 4.5479317 -5.202133 6.246086m-7.3739777 -29.31913l0 0c0.19873047 0.97322464 0.2906952 1.9610748 0.27464294 2.9498615m-30.762741 -10.174778l0 0c-1.0895538 1.1339207 -1.9871979 2.401062 -2.664978 3.7619686m-23.841888 -1.5419693l0 0c-0.58062744 1.0299301 -1.0142059 2.1197739 -1.290741 3.2444248m-29.07518 0.8874321l0 0c1.695282 0.87815666 3.2636566 1.935112 4.6706543 3.147646m-40.9797 18.253979l0 0c0.17249298 1.1211739 0.44504547 2.2285233 0.8151016 3.3116837" fill-rule="evenodd"/><path stroke="#000000" stroke-width="1.0" stroke-linejoin="round" stroke-linecap="butt" d="m113.79685 42.30099l0 0c-1.2515488 -8.134693 2.8575287 -16.187544 10.583595 -20.741434c7.726074 -4.55389 17.714142 -4.8101635 25.725906 -0.66007614l0 0c2.838028 -4.729847 8.03241 -7.9954805 14.011978 -8.80911c5.9795837 -0.8136282 12.042007 0.9203119 16.353516 4.6773367l0 0c2.4176178 -4.2883835 7.164673 -7.16963 12.556641 -7.6213217c5.391968 -0.45169258 10.665756 1.5900946 13.949966 5.4008293l0 0c4.3677826 -4.545676 11.317047 -6.4595947 17.840805 -4.9135933c6.5237427 1.5460024 11.450256 6.27425 12.647812 12.138803l0 0c5.351288 1.2909927 9.808792 4.5728626 12.22084 8.997683c2.4120483 4.42482 2.542038 9.558525 0.35636902 14.07473l0 0c5.269455 6.0657578 6.5021057 14.1483 3.2379608 21.231373c-3.264145 7.0830765 -10.534683 12.102524 -19.098389 13.185188c-0.06036377 6.6477127 -4.18248 12.7475815 -10.777527 15.948441c-6.5950317 3.200859 -14.633148 3.002884 -21.016098 -0.5176163l0 0c-2.7187958 7.9617996 -10.371307 13.820007 -19.651367 15.043671c-9.28006 1.223671 -18.524017 -2.406578 -23.738174 -9.322334l0 0c-6.391449 3.4087982 -14.060654 4.39077 -21.277603 2.7243881c-7.216934 -1.6663742 -13.373711 -5.8407288 -17.081451 -11.581406l0 0c-6.5312576 0.6759796 -12.846085 -2.3168793 -15.810448 -7.4932404c-2.9643707 -5.1763535 -1.9472351 -11.43428 2.546608 -15.667992l0 0c-5.8260574 -3.0328293 -8.798859 -9.050972 -7.36821 -14.916203c1.4306412 -5.8652267 6.9405518 -10.248459 13.656517 -10.864014z" fill-rule="evenodd"/><path stroke="#000000" stroke-width="1.0" stroke-linejoin="round" stroke-linecap="butt" d="m107.37944 68.39473l0 0c2.7493286 1.4311981 5.925453 2.080429 9.101921 1.8605118m4.160492 21.301239c1.3659973 -0.14138031 2.7049332 -0.440773 3.982277 -0.8904495m34.374878 9.747093c-0.9607544 -1.274292 -1.765152 -2.6359787 -2.399475 -4.0618668m45.790665 -1.6597061l0 0c0.49568176 -1.4515533 0.8168335 -2.9455109 0.9581146 -4.4569626m30.834305 -10.973305c0.06425476 -7.0775223 -4.480789 -13.557777 -11.682922 -16.657299m27.543198 -17.758514c-1.1663666 2.4100304 -2.9469452 4.5479317 -5.202133 6.246086m-7.3739777 -29.31913l0 0c0.19873047 0.97322464 0.2906952 1.9610748 0.27464294 2.9498615m-30.762741 -10.174778l0 0c-1.0895538 1.1339207 -1.9871979 2.401062 -2.664978 3.7619686m-23.841888 -1.5419693l0 0c-0.58062744 1.0299301 -1.0142059 2.1197739 -1.290741 3.2444248m-29.07518 0.8874321l0 0c1.695282 0.87815666 3.2636566 1.935112 4.6706543 3.147646m-40.9797 18.253979l0 0c0.17249298 1.1211739 0.44504547 2.2285233 0.8151016 3.3116837" fill-rule="evenodd"/><path fill="#93c47d" d="m113.79685 436.61334l0 0c-1.2515488 -8.134705 2.8575287 -16.187561 10.583595 -20.741455c7.726074 -4.553894 17.714142 -4.81015 25.725906 -0.6600647l0 0c2.838028 -4.7298584 8.03241 -7.9954834 14.011978 -8.809113c5.9795837 -0.81362915 12.042007 0.9203186 16.353516 4.6773376l0 0c2.4176178 -4.288391 7.164673 -7.169647 12.556641 -7.621338c5.391968 -0.45169067 10.665756 1.5901184 13.949966 5.4008484l0 0c4.3677826 -4.545685 11.317047 -6.4595947 17.840805 -4.9136047c6.5237427 1.5460205 11.450256 6.2742615 12.647812 12.138794l0 0c5.351288 1.2910156 9.808792 4.572876 12.22084 8.997711c2.4120483 4.4248047 2.542038 9.558502 0.35636902 14.074707l0 0c5.269455 6.0657654 6.5021057 14.148315 3.2379608 21.231384c-3.264145 7.083069 -10.534683 12.102509 -19.098389 13.185181c-0.06036377 6.647705 -4.18248 12.747589 -10.777527 15.948456c-6.5950317 3.2008362 -14.633148 3.0028687 -21.016098 -0.51763916l0 0c-2.7187958 7.9618225 -10.371307 13.820007 -19.651367 15.043671c-9.28006 1.2236938 -18.524017 -2.4065552 -23.738174 -9.322327l0 0c-6.391449 3.4088135 -14.060654 4.3907776 -21.277603 2.7243958c-7.216934 -1.6663818 -13.373711 -5.8407288 -17.081451 -11.581421l0 0c-6.5312576 0.6759949 -12.846085 -2.316864 -15.810448 -7.493225c-2.9643707 -5.176361 -1.9472351 -11.434296 2.546608 -15.667999l0 0c-5.8260574 -3.032837 -8.798859 -9.050964 -7.36821 -14.916199c1.4306412 -5.8652344 6.9405518 -10.248474 13.656517 -10.864014z" fill-rule="evenodd"/><path fill="#000000" fill-opacity="0.0" d="m107.37944 462.70706l0 0c2.7493286 1.4312134 5.925453 2.0804443 9.101921 1.8605042m4.160492 21.301239c1.3659973 -0.14135742 2.7049332 -0.44076538 3.982277 -0.8904419m34.374878 9.747101c-0.9607544 -1.274292 -1.765152 -2.6359863 -2.399475 -4.061859m45.790665 -1.659729l0 0c0.49568176 -1.4515381 0.8168335 -2.9454956 0.9581146 -4.4569397m30.834305 -10.973328c0.06425476 -7.0775146 -4.480789 -13.55777 -11.682922 -16.657288m27.543198 -17.758514c-1.1663666 2.4100342 -2.9469452 4.547943 -5.202133 6.2460938m-7.3739777 -29.319153l0 0c0.19873047 0.9732361 0.2906952 1.9610901 0.27464294 2.9498901m-30.762741 -10.174805l0 0c-1.0895538 1.1339417 -1.9871979 2.401062 -2.664978 3.7619934m-23.841888 -1.5419922l0 0c-0.58062744 1.0299377 -1.0142059 2.1197815 -1.290741 3.2444458m-29.07518 0.88742065l0 0c1.695282 0.8781433 3.2636566 1.9351196 4.6706543 3.147644m-40.9797 18.253998l0 0c0.17249298 1.1211548 0.44504547 2.2285156 0.8151016 3.311676" fill-rule="evenodd"/><path stroke="#000000" stroke-width="1.0" stroke-linejoin="round" stroke-linecap="butt" d="m113.79685 436.61334l0 0c-1.2515488 -8.134705 2.8575287 -16.187561 10.583595 -20.741455c7.726074 -4.553894 17.714142 -4.81015 25.725906 -0.6600647l0 0c2.838028 -4.7298584 8.03241 -7.9954834 14.011978 -8.809113c5.9795837 -0.81362915 12.042007 0.9203186 16.353516 4.6773376l0 0c2.4176178 -4.288391 7.164673 -7.169647 12.556641 -7.621338c5.391968 -0.45169067 10.665756 1.5901184 13.949966 5.4008484l0 0c4.3677826 -4.545685 11.317047 -6.4595947 17.840805 -4.9136047c6.5237427 1.5460205 11.450256 6.2742615 12.647812 12.138794l0 0c5.351288 1.2910156 9.808792 4.572876 12.22084 8.997711c2.4120483 4.4248047 2.542038 9.558502 0.35636902 14.074707l0 0c5.269455 6.0657654 6.5021057 14.148315 3.2379608 21.231384c-3.264145 7.083069 -10.534683 12.102509 -19.098389 13.185181c-0.06036377 6.647705 -4.18248 12.747589 -10.777527 15.948456c-6.5950317 3.2008362 -14.633148 3.0028687 -21.016098 -0.51763916l0 0c-2.7187958 7.9618225 -10.371307 13.820007 -19.651367 15.043671c-9.28006 1.2236938 -18.524017 -2.4065552 -23.738174 -9.322327l0 0c-6.391449 3.4088135 -14.060654 4.3907776 -21.277603 2.7243958c-7.216934 -1.6663818 -13.373711 -5.8407288 -17.081451 -11.581421l0 0c-6.5312576 0.6759949 -12.846085 -2.316864 -15.810448 -7.493225c-2.9643707 -5.176361 -1.9472351 -11.434296 2.546608 -15.667999l0 0c-5.8260574 -3.032837 -8.798859 -9.050964 -7.36821 -14.916199c1.4306412 -5.8652344 6.9405518 -10.248474 13.656517 -10.864014z" fill-rule="evenodd"/><path stroke="#000000" stroke-width="1.0" stroke-linejoin="round" stroke-linecap="butt" d="m107.37944 462.70706l0 0c2.7493286 1.4312134 5.925453 2.0804443 9.101921 1.8605042m4.160492 21.301239c1.3659973 -0.14135742 2.7049332 -0.44076538 3.982277 -0.8904419m34.374878 9.747101c-0.9607544 -1.274292 -1.765152 -2.6359863 -2.399475 -4.061859m45.790665 -1.659729l0 0c0.49568176 -1.4515381 0.8168335 -2.9454956 0.9581146 -4.4569397m30.834305 -10.973328c0.06425476 -7.0775146 -4.480789 -13.55777 -11.682922 -16.657288m27.543198 -17.758514c-1.1663666 2.4100342 -2.9469452 4.547943 -5.202133 6.2460938m-7.3739777 -29.319153l0 0c0.19873047 0.9732361 0.2906952 1.9610901 0.27464294 2.9498901m-30.762741 -10.174805l0 0c-1.0895538 1.1339417 -1.9871979 2.401062 -2.664978 3.7619934m-23.841888 -1.5419922l0 0c-0.58062744 1.0299377 -1.0142059 2.1197815 -1.290741 3.2444458m-29.07518 0.88742065l0 0c1.695282 0.8781433 3.2636566 1.9351196 4.6706543 3.147644m-40.9797 18.253998l0 0c0.17249298 1.1211548 0.44504547 2.2285156 0.8151016 3.311676" fill-rule="evenodd"/><path fill="#cfe2f3" d="m155.6483 141.82414l0 0c0 -10.92392 9.736923 -19.779526 21.748032 -19.779526l0 0c12.011093 0 21.748032 8.855606 21.748032 19.779526l0 0c0 10.923935 -9.736938 19.779526 -21.748032 19.779526l0 0c-12.011108 0 -21.748032 -8.855591 -21.748032 -19.779526z" fill-rule="evenodd"/><path fill="#000000" fill-opacity="0.0" d="m162.01814 127.837906l30.756363 27.972473m0 -27.972473l-30.756363 27.972473" fill-rule="evenodd"/><path fill="#000000" fill-opacity="0.0" d="m155.6483 141.82414l0 0c0 -10.92392 9.736923 -19.779526 21.748032 -19.779526l0 0c12.011093 0 21.748032 8.855606 21.748032 19.779526l0 0c0 10.923935 -9.736938 19.779526 -21.748032 19.779526l0 0c-12.011108 0 -21.748032 -8.855591 -21.748032 -19.779526z" fill-rule="evenodd"/><path stroke="#000000" stroke-width="1.0" stroke-linejoin="round" stroke-linecap="butt" d="m162.01814 127.837906l30.756363 27.972473m0 -27.972473l-30.756363 27.972473" fill-rule="evenodd"/><path stroke="#000000" stroke-width="1.0" stroke-linejoin="round" stroke-linecap="butt" d="m155.6483 141.82414l0 0c0 -10.92392 9.736923 -19.779526 21.748032 -19.779526l0 0c12.011093 0 21.748032 8.855606 21.748032 19.779526l0 0c0 10.923935 -9.736938 19.779526 -21.748032 19.779526l0 0c-12.011108 0 -21.748032 -8.855591 -21.748032 -19.779526z" fill-rule="evenodd"/><path fill="#cfe2f3" d="m155.6483 369.4567l0 0c0 -10.92392 9.736923 -19.779541 21.748032 -19.779541l0 0c12.011093 0 21.748032 8.855621 21.748032 19.779541l0 0c0 10.92392 -9.736938 19.77951 -21.748032 19.77951l0 0c-12.011108 0 -21.748032 -8.855591 -21.748032 -19.77951z" fill-rule="evenodd"/><path fill="#000000" fill-opacity="0.0" d="m162.01814 355.47046l30.756363 27.972473m0 -27.972473l-30.756363 27.972473" fill-rule="evenodd"/><path fill="#000000" fill-opacity="0.0" d="m155.6483 369.4567l0 0c0 -10.92392 9.736923 -19.779541 21.748032 -19.779541l0 0c12.011093 0 21.748032 8.855621 21.748032 19.779541l0 0c0 10.92392 -9.736938 19.77951 -21.748032 19.77951l0 0c-12.011108 0 -21.748032 -8.855591 -21.748032 -19.77951z" fill-rule="evenodd"/><path stroke="#000000" stroke-width="1.0" stroke-linejoin="round" stroke-linecap="butt" d="m162.01814 355.47046l30.756363 27.972473m0 -27.972473l-30.756363 27.972473" fill-rule="evenodd"/><path stroke="#000000" stroke-width="1.0" stroke-linejoin="round" stroke-linecap="butt" d="m155.6483 369.4567l0 0c0 -10.92392 9.736923 -19.779541 21.748032 -19.779541l0 0c12.011093 0 21.748032 8.855621 21.748032 19.779541l0 0c0 10.92392 -9.736938 19.77951 -21.748032 19.77951l0 0c-12.011108 0 -21.748032 -8.855591 -21.748032 -19.77951z" fill-rule="evenodd"/><path fill="#000000" fill-opacity="0.0" d="m243.8084 115.39895l135.02364 0l0 40.409447l-135.02364 0z" fill-rule="evenodd"/><path stroke="#ff0000" stroke-width="1.0" stroke-linejoin="round" stroke-linecap="butt" d="m243.8084 115.39895l135.02364 0l0 40.409447l-135.02364 0z" fill-rule="evenodd"/><path fill="#000000" d="m259.9593 141.03896l-1.515625 0l0 -9.703125q-0.5625 0.515625 -1.453125 1.046875q-0.890625 0.53125 -1.5937653 0.78125l0 -1.46875q1.2812653 -0.59375 2.2343903 -1.453125q0.953125 -0.859375 1.34375 -1.65625l0.984375 0l0 12.453125zm4.137085 -2.875l1.453125 -0.125q0.1875 1.03125 0.703125 1.5q0.53125 0.453125 1.359375 0.453125q0.703125 0 1.234375 -0.3125q0.53125 -0.328125 0.859375 -0.859375q0.34375 -0.546875 0.5625 -1.453125q0.234375 -0.90625 0.234375 -1.859375q0 -0.109375 0 -0.3125q-0.46875 0.734375 -1.265625 1.1875q-0.78125 0.453125 -1.703125 0.453125q-1.546875 0 -2.609375 -1.109375q-1.0625 -1.125 -1.0625 -2.953125q0 -1.890625 1.109375 -3.03125q1.109375 -1.15625 2.796875 -1.15625q1.203125 0 2.203125 0.65625q1.0 0.640625 1.515625 1.859375q0.53125 1.203125 0.53125 3.484375q0 2.375 -0.515625 3.78125q-0.515625 1.40625 -1.546875 2.15625q-1.015625 0.734375 -2.375 0.734375q-1.453125 0 -2.375 -0.8125q-0.921875 -0.8125 -1.109375 -2.28125zm6.234375 -5.46875q0 -1.3125 -0.703125 -2.078125q-0.703125 -0.765625 -1.671875 -0.765625q-1.015625 0 -1.78125 0.828125q-0.75 0.828125 -0.75 2.140625q0 1.1875 0.71875 1.9375q0.71875 0.734375 1.765625 0.734375q1.0625 0 1.734375 -0.734375q0.6875 -0.75 0.6875 -2.0625zm11.168335 6.875l0 1.46875l-8.1875 0q-0.03125 -0.546875 0.171875 -1.0625q0.3125 -0.828125 1.0 -1.640625q0.6875 -0.8125 2.0 -1.875q2.015625 -1.671875 2.71875 -2.640625q0.71875 -0.96875 0.71875 -1.828125q0 -0.90625 -0.65625 -1.515625q-0.640625 -0.625 -1.671875 -0.625q-1.109375 0 -1.765625 0.65625q-0.65625 0.65625 -0.671875 1.828125l-1.5625 -0.15625q0.15625 -1.765625 1.203125 -2.671875q1.0625 -0.921875 2.828125 -0.921875q1.78125 0 2.8125 1.0q1.046875 0.984375 1.046875 2.4375q0 0.75 -0.3125 1.46875q-0.296875 0.71875 -1.0 1.515625q-0.703125 0.796875 -2.34375 2.1875q-1.375 1.140625 -1.765625 1.5625q-0.390625 0.40625 -0.640625 0.8125l6.078125 0zm2.49646 1.46875l0 -1.734375l1.734375 0l0 1.734375l-1.734375 0zm9.689301 0l-1.515625 0l0 -9.703125q-0.5625 0.515625 -1.453125 1.046875q-0.890625 0.53125 -1.59375 0.78125l0 -1.46875q1.28125 -0.59375 2.234375 -1.453125q0.953125 -0.859375 1.34375 -1.65625l0.984375 0l0 12.453125zm11.80896 -9.359375l-1.515625 0.109375q-0.203125 -0.890625 -0.578125 -1.296875q-0.609375 -0.65625 -1.515625 -0.65625q-0.734375 0 -1.28125 0.40625q-0.71875 0.53125 -1.140625 1.53125q-0.40625 1.0 -0.421875 2.875q0.546875 -0.84375 1.34375 -1.25q0.796875 -0.40625 1.65625 -0.40625q1.53125 0 2.59375 1.125q1.078125 1.125 1.078125 2.890625q0 1.171875 -0.515625 2.171875q-0.5 1.0 -1.375 1.546875q-0.875 0.53125 -2.0 0.53125q-1.90625 0 -3.109375 -1.40625q-1.1875 -1.40625 -1.1875 -4.609375q0 -3.609375 1.328125 -5.234375q1.15625 -1.421875 3.125 -1.421875q1.453125 0 2.390625 0.828125q0.9375 0.8125 1.125 2.265625zm-6.21875 5.34375q0 0.78125 0.328125 1.5q0.34375 0.71875 0.9375 1.09375q0.59375 0.375 1.265625 0.375q0.953125 0 1.640625 -0.765625q0.703125 -0.78125 0.703125 -2.125q0 -1.28125 -0.6875 -2.015625q-0.671875 -0.75 -1.71875 -0.75q-1.03125 0 -1.75 0.75q-0.71875 0.734375 -0.71875 1.9375zm10.293335 -2.703125q-0.953125 -0.359375 -1.40625 -1.0q-0.453125 -0.640625 -0.453125 -1.53125q0 -1.359375 0.96875 -2.28125q0.96875 -0.921875 2.59375 -0.921875q1.625 0 2.609375 0.953125q1.0 0.9375 1.0 2.28125q0 0.875 -0.453125 1.515625q-0.453125 0.625 -1.375 0.984375q1.140625 0.359375 1.734375 1.1875q0.59375 0.828125 0.59375 1.984375q0 1.59375 -1.125 2.6875q-1.125 1.078125 -2.96875 1.078125q-1.828125 0 -2.953125 -1.09375q-1.125 -1.09375 -1.125 -2.71875q0 -1.203125 0.609375 -2.015625q0.609375 -0.828125 1.75 -1.109375zm-0.296875 -2.59375q0 0.890625 0.5625 1.453125q0.5625 0.546875 1.46875 0.546875q0.875 0 1.4375 -0.546875q0.5625 -0.5625 0.5625 -1.359375q0 -0.84375 -0.578125 -1.40625q-0.578125 -0.578125 -1.4375 -0.578125q-0.875 0 -1.453125 0.5625q-0.5625 0.5625 -0.5625 1.328125zm-0.5 5.734375q0 0.65625 0.3125 1.265625q0.3125 0.609375 0.921875 0.9375q0.609375 0.328125 1.3125 0.328125q1.078125 0 1.78125 -0.6875q0.71875 -0.703125 0.71875 -1.796875q0 -1.09375 -0.734375 -1.8125q-0.71875 -0.71875 -1.828125 -0.71875q-1.0625 0 -1.78125 0.71875q-0.703125 0.703125 -0.703125 1.765625zm8.949585 3.578125l0 -1.734375l1.734375 0l0 1.734375l-1.734375 0zm9.689331 0l-1.515625 0l0 -9.703125q-0.5625 0.515625 -1.453125 1.046875q-0.890625 0.53125 -1.59375 0.78125l0 -1.46875q1.28125 -0.59375 2.234375 -1.453125q0.953125 -0.859375 1.34375 -1.65625l0.984375 0l0 12.453125zm4.762085 0l0 -1.734375l1.734375 0l0 1.734375l-1.734375 0zm3.9549255 -6.125q0 -2.1875 0.453125 -3.53125q0.453125 -1.34375 1.34375 -2.0625q0.890625 -0.734375 2.25 -0.734375q1.0 0 1.75 0.40625q0.75 0.390625 1.234375 1.15625q0.5 0.75 0.78125 1.84375q0.28125 1.078125 0.28125 2.921875q0 2.1875 -0.453125 3.53125q-0.453125 1.34375 -1.34375 2.078125q-0.890625 0.734375 -2.25 0.734375q-1.796875 0 -2.8125 -1.296875q-1.234375 -1.546875 -1.234375 -5.046875zm1.5625 0q0 3.0625 0.71875 4.078125q0.71875 1.0 1.765625 1.0q1.046875 0 1.765625 -1.015625q0.71875 -1.015625 0.71875 -4.0625q0 -3.0625 -0.71875 -4.0625q-0.71875 -1.0 -1.78125 -1.0q-1.046875 0 -1.671875 0.875q-0.796875 1.140625 -0.796875 4.1875zm7.355835 6.34375l3.59375 -12.828125l1.21875 0l-3.578125 12.828125l-1.234375 0zm13.533081 -1.6875l0 1.46875l-8.1875 0q-0.03125 -0.546875 0.171875 -1.0625q0.3125 -0.828125 1.0 -1.640625q0.6875 -0.8125 2.0 -1.875q2.015625 -1.671875 2.71875 -2.640625q0.71875 -0.96875 0.71875 -1.828125q0 -0.90625 -0.65625 -1.515625q-0.640625 -0.625 -1.671875 -0.625q-1.109375 0 -1.765625 0.65625q-0.65625 0.65625 -0.671875 1.828125l-1.5625 -0.15625q0.15625 -1.765625 1.203125 -2.671875q1.0625 -0.921875 2.828125 -0.921875q1.78125 0 2.8125 1.0q1.046875 0.984375 1.046875 2.4375q0 0.75 -0.3125 1.46875q-0.296875 0.71875 -1.0 1.515625q-0.703125 0.796875 -2.34375 2.1875q-1.375 1.140625 -1.765625 1.5625q-0.390625 0.40625 -0.640625 0.8125l6.078125 0zm6.512085 1.46875l0 -2.96875l-5.375 0l0 -1.390625l5.65625 -8.046875l1.25 0l0 8.046875l1.671875 0l0 1.390625l-1.671875 0l0 2.96875l-1.53125 0zm0 -4.359375l0 -5.59375l-3.875 5.59375l3.875 0z" fill-rule="nonzero"/><path fill="#000000" fill-opacity="0.0" d="m55.451443 184.12335l106.55118 -28.314957" fill-rule="evenodd"/><path stroke="#ff0000" stroke-width="1.0" stroke-linejoin="round" stroke-linecap="butt" d="m55.451443 184.12335l106.55118 -28.314957" fill-rule="evenodd"/><path fill="#000000" fill-opacity="0.0" d="m299.34122 184.12335l-106.55119 -28.314957" fill-rule="evenodd"/><path stroke="#ff0000" stroke-width="1.0" stroke-linejoin="round" stroke-linecap="butt" d="m299.34122 184.12335l-106.55119 -28.314957" fill-rule="evenodd"/><path fill="#000000" fill-opacity="0.0" d="m177.39633 230.32939l0 -68.72441" fill-rule="evenodd"/><path stroke="#ff0000" stroke-width="1.0" stroke-linejoin="round" stroke-linecap="butt" d="m177.39633 230.32939l0 -68.72441" fill-rule="evenodd"/><path fill="#000000" fill-opacity="0.0" d="m177.39633 122.04462l0 -12.535431" fill-rule="evenodd"/><path stroke="#000000" stroke-width="1.0" stroke-linejoin="round" stroke-linecap="butt" d="m177.39633 122.04462l0 -12.535431" fill-rule="evenodd"/><path fill="#000000" fill-opacity="0.0" d="m299.34122 258.9895l0 110.456696l-100.18898 0" fill-rule="evenodd"/><path stroke="#00ff00" stroke-width="1.0" stroke-linejoin="round" stroke-linecap="butt" d="m299.34122 258.9895l0 110.456696l-100.18898 0" fill-rule="evenodd"/><path fill="#000000" fill-opacity="0.0" d="m55.451443 258.9895l0 110.456696l100.18898 0" fill-rule="evenodd"/><path stroke="#00ff00" stroke-width="1.0" stroke-linejoin="round" stroke-linecap="butt" d="m55.451443 258.9895l0 110.456696l100.18898 0" fill-rule="evenodd"/><path fill="#000000" fill-opacity="0.0" d="m177.39633 305.19553l0 44.472443" fill-rule="evenodd"/><path stroke="#00ff00" stroke-width="1.0" stroke-linejoin="round" stroke-linecap="butt" d="m177.39633 305.19553l0 44.472443" fill-rule="evenodd"/><path fill="#000000" fill-opacity="0.0" d="m177.39633 389.2362l0 19.590576" fill-rule="evenodd"/><path stroke="#000000" stroke-width="1.0" stroke-linejoin="round" stroke-linecap="butt" d="m177.39633 389.2362l0 19.590576" fill-rule="evenodd"/><path fill="#000000" fill-opacity="0.0" d="m272.65616 378.82678l163.49606 0l0 40.409424l-163.49606 0z" fill-rule="evenodd"/><path stroke="#ff0000" stroke-width="1.0" stroke-linejoin="round" stroke-linecap="butt" d="m272.65616 378.82678l163.49606 0l0 40.409424l-163.49606 0z" fill-rule="evenodd"/><path fill="#000000" d="m298.22473 404.46677l-1.515625 0l0 -9.703125q-0.5625 0.515625 -1.453125 1.046875q-0.890625 0.53125 -1.59375 0.78125l0 -1.46875q1.28125 -0.59375 2.234375 -1.453125q0.953125 -0.859375 1.34375 -1.65625l0.984375 0l0 12.453125zm4.137085 -2.875l1.453125 -0.125q0.1875 1.03125 0.703125 1.5q0.53125 0.453125 1.359375 0.453125q0.703125 0 1.234375 -0.3125q0.53125 -0.328125 0.859375 -0.859375q0.34375 -0.546875 0.5625 -1.453125q0.234375 -0.90625 0.234375 -1.859375q0 -0.109375 0 -0.3125q-0.46875 0.734375 -1.265625 1.1875q-0.78125 0.453125 -1.703125 0.453125q-1.546875 0 -2.609375 -1.109375q-1.0625 -1.125 -1.0625 -2.953125q0 -1.890625 1.109375 -3.03125q1.109375 -1.15625 2.796875 -1.15625q1.203125 0 2.203125 0.65625q1.0 0.640625 1.515625 1.859375q0.53125 1.203125 0.53125 3.484375q0 2.375 -0.515625 3.78125q-0.515625 1.40625 -1.546875 2.15625q-1.015625 0.734375 -2.375 0.734375q-1.453125 0 -2.375 -0.8125q-0.921875 -0.8125 -1.109375 -2.28125zm6.234375 -5.46875q0 -1.3125 -0.703125 -2.078125q-0.703125 -0.765625 -1.671875 -0.765625q-1.015625 0 -1.78125 0.828125q-0.75 0.828125 -0.75 2.140625q0 1.1875 0.71875 1.9375q0.71875 0.734375 1.765625 0.734375q1.0625 0 1.734375 -0.734375q0.6875 -0.75 0.6875 -2.0625zm11.168335 6.875l0 1.46875l-8.1875 0q-0.03125 -0.546875 0.171875 -1.0625q0.3125 -0.828125 1.0 -1.640625q0.6875 -0.8125 2.0 -1.875q2.015625 -1.671875 2.71875 -2.640625q0.71875 -0.96875 0.71875 -1.828125q0 -0.90625 -0.65625 -1.515625q-0.640625 -0.625 -1.671875 -0.625q-1.109375 0 -1.765625 0.65625q-0.65625 0.65625 -0.671875 1.828125l-1.5625 -0.15625q0.15625 -1.765625 1.203125 -2.671875q1.0625 -0.921875 2.828125 -0.921875q1.78125 0 2.8125 1.0q1.046875 0.984375 1.046875 2.4375q0 0.75 -0.3125 1.46875q-0.296875 0.71875 -1.0 1.515625q-0.703125 0.796875 -2.34375 2.1875q-1.375 1.140625 -1.765625 1.5625q-0.390625 0.40625 -0.640625 0.8125l6.078125 0zm2.49646 1.46875l0 -1.734375l1.734375 0l0 1.734375l-1.734375 0zm9.689301 0l-1.515625 0l0 -9.703125q-0.5625 0.515625 -1.453125 1.046875q-0.890625 0.53125 -1.59375 0.78125l0 -1.46875q1.28125 -0.59375 2.234375 -1.453125q0.953125 -0.859375 1.34375 -1.65625l0.984375 0l0 12.453125zm11.80896 -9.359375l-1.515625 0.109375q-0.203125 -0.890625 -0.578125 -1.296875q-0.609375 -0.65625 -1.515625 -0.65625q-0.734375 0 -1.28125 0.40625q-0.71875 0.53125 -1.140625 1.53125q-0.40625 1.0 -0.421875 2.875q0.546875 -0.84375 1.34375 -1.25q0.796875 -0.40625 1.65625 -0.40625q1.53125 0 2.59375 1.125q1.078125 1.125 1.078125 2.890625q0 1.171875 -0.515625 2.171875q-0.5 1.0 -1.375 1.546875q-0.875 0.53125 -2.0 0.53125q-1.90625 0 -3.109375 -1.40625q-1.1875 -1.40625 -1.1875 -4.609375q0 -3.609375 1.328125 -5.234375q1.15625 -1.421875 3.125 -1.421875q1.453125 0 2.390625 0.828125q0.9375 0.8125 1.125 2.265625zm-6.21875 5.34375q0 0.78125 0.328125 1.5q0.34375 0.71875 0.9375 1.09375q0.59375 0.375 1.265625 0.375q0.953125 0 1.640625 -0.765625q0.703125 -0.78125 0.703125 -2.125q0 -1.28125 -0.6875 -2.015625q-0.671875 -0.75 -1.71875 -0.75q-1.03125 0 -1.75 0.75q-0.71875 0.734375 -0.71875 1.9375zm10.293335 -2.703125q-0.953125 -0.359375 -1.40625 -1.0q-0.453125 -0.640625 -0.453125 -1.53125q0 -1.359375 0.96875 -2.28125q0.96875 -0.921875 2.59375 -0.921875q1.625 0 2.609375 0.953125q1.0 0.9375 1.0 2.28125q0 0.875 -0.453125 1.515625q-0.453125 0.625 -1.375 0.984375q1.140625 0.359375 1.734375 1.1875q0.59375 0.828125 0.59375 1.984375q0 1.59375 -1.125 2.6875q-1.125 1.078125 -2.96875 1.078125q-1.828125 0 -2.953125 -1.09375q-1.125 -1.09375 -1.125 -2.71875q0 -1.203125 0.609375 -2.015625q0.609375 -0.828125 1.75 -1.109375zm-0.296875 -2.59375q0 0.890625 0.5625 1.453125q0.5625 0.546875 1.46875 0.546875q0.875 0 1.4375 -0.546875q0.5625 -0.5625 0.5625 -1.359375q0 -0.84375 -0.578125 -1.40625q-0.578125 -0.578125 -1.4375 -0.578125q-0.875 0 -1.453125 0.5625q-0.5625 0.5625 -0.5625 1.328125zm-0.5 5.734375q0 0.65625 0.3125 1.265625q0.3125 0.609375 0.921875 0.9375q0.609375 0.328125 1.3125 0.328125q1.078125 0 1.78125 -0.6875q0.71875 -0.703125 0.71875 -1.796875q0 -1.09375 -0.734375 -1.8125q-0.71875 -0.71875 -1.828125 -0.71875q-1.0625 0 -1.78125 0.71875q-0.703125 0.703125 -0.703125 1.765625zm8.949585 3.578125l0 -1.734375l1.734375 0l0 1.734375l-1.734375 0zm9.689331 0l-1.515625 0l0 -9.703125q-0.5625 0.515625 -1.453125 1.046875q-0.890625 0.53125 -1.59375 0.78125l0 -1.46875q1.28125 -0.59375 2.234375 -1.453125q0.953125 -0.859375 1.34375 -1.65625l0.984375 0l0 12.453125zm3.90271 -6.125q0 -2.1875 0.453125 -3.53125q0.453125 -1.34375 1.34375 -2.0625q0.890625 -0.734375 2.25 -0.734375q1.0 0 1.75 0.40625q0.75 0.390625 1.234375 1.15625q0.5 0.75 0.78125 1.84375q0.28125 1.078125 0.28125 2.921875q0 2.1875 -0.453125 3.53125q-0.453125 1.34375 -1.34375 2.078125q-0.890625 0.734375 -2.25 0.734375q-1.796875 0 -2.8125 -1.296875q-1.234375 -1.546875 -1.234375 -5.046875zm1.5625 0q0 3.0625 0.71875 4.078125q0.71875 1.0 1.765625 1.0q1.046875 0 1.765625 -1.015625q0.71875 -1.015625 0.71875 -4.0625q0 -3.0625 -0.71875 -4.0625q-0.71875 -1.0 -1.78125 -1.0q-1.046875 0 -1.671875 0.875q-0.796875 1.140625 -0.796875 4.1875zm8.93396 6.125l0 -1.734375l1.734375 0l0 1.734375l-1.734375 0zm3.9549255 -6.125q0 -2.1875 0.453125 -3.53125q0.453125 -1.34375 1.34375 -2.0625q0.890625 -0.734375 2.25 -0.734375q1.0 0 1.75 0.40625q0.75 0.390625 1.234375 1.15625q0.5 0.75 0.78125 1.84375q0.28125 1.078125 0.28125 2.921875q0 2.1875 -0.453125 3.53125q-0.453125 1.34375 -1.34375 2.078125q-0.890625 0.734375 -2.25 0.734375q-1.796875 0 -2.8125 -1.296875q-1.234375 -1.546875 -1.234375 -5.046875zm1.5625 0q0 3.0625 0.71875 4.078125q0.71875 1.0 1.765625 1.0q1.046875 0 1.765625 -1.015625q0.71875 -1.015625 0.71875 -4.0625q0 -3.0625 -0.71875 -4.0625q-0.71875 -1.0 -1.78125 -1.0q-1.046875 0 -1.671875 0.875q-0.796875 1.140625 -0.796875 4.1875zm7.355835 6.34375l3.59375 -12.828125l1.21875 0l-3.578125 12.828125l-1.234375 0zm13.533081 -1.6875l0 1.46875l-8.1875 0q-0.03125 -0.546875 0.171875 -1.0625q0.3125 -0.828125 1.0 -1.640625q0.6875 -0.8125 2.0 -1.875q2.015625 -1.671875 2.71875 -2.640625q0.71875 -0.96875 0.71875 -1.828125q0 -0.90625 -0.65625 -1.515625q-0.640625 -0.625 -1.671875 -0.625q-1.109375 0 -1.765625 0.65625q-0.65625 0.65625 -0.671875 1.828125l-1.5625 -0.15625q0.15625 -1.765625 1.203125 -2.671875q1.0625 -0.921875 2.828125 -0.921875q1.78125 0 2.8125 1.0q1.046875 0.984375 1.046875 2.4375q0 0.75 -0.3125 1.46875q-0.296875 0.71875 -1.0 1.515625q-0.703125 0.796875 -2.34375 2.1875q-1.375 1.140625 -1.765625 1.5625q-0.390625 0.40625 -0.640625 0.8125l6.078125 0zm6.512085 1.46875l0 -2.96875l-5.375 0l0 -1.390625l5.65625 -8.046875l1.25 0l0 8.046875l1.671875 0l0 1.390625l-1.671875 0l0 2.96875l-1.53125 0zm0 -4.359375l0 -5.59375l-3.875 5.59375l3.875 0z" fill-rule="nonzero"/></g></svg>